DataType=double
version=3
OpenSimVersion=4.0
endheader
time	/jointset/gnd_pelvis/pelvis_tilt/value	/jointset/gnd_pelvis/pelvis_tilt/speed	/jointset/gnd_pelvis/pelvis_list/value	/jointset/gnd_pelvis/pelvis_list/speed	/jointset/gnd_pelvis/pelvis_rot/value	/jointset/gnd_pelvis/pelvis_rot/speed	/jointset/gnd_pelvis/pelvis_tx/value	/jointset/gnd_pelvis/pelvis_tx/speed	/jointset/gnd_pelvis/pelvis_ty/value	/jointset/gnd_pelvis/pelvis_ty/speed	/jointset/gnd_pelvis/pelvis_tz/value	/jointset/gnd_pelvis/pelvis_tz/speed	/jointset/hip_r/hip_flex_r/value	/jointset/hip_r/hip_flex_r/speed	/jointset/hip_r/hip_add_r/value	/jointset/hip_r/hip_add_r/speed	/jointset/hip_r/hip_rot_r/value	/jointset/hip_r/hip_rot_r/speed	/jointset/pf_r/pf_flex_r/value	/jointset/pf_r/pf_flex_r/speed	/jointset/pf_r/pf_rot_r/value	/jointset/pf_r/pf_rot_r/speed	/jointset/pf_r/pf_tilt_r/value	/jointset/pf_r/pf_tilt_r/speed	/jointset/pf_r/pf_tx_r/value	/jointset/pf_r/pf_tx_r/speed	/jointset/pf_r/pf_ty_r/value	/jointset/pf_r/pf_ty_r/speed	/jointset/pf_r/pf_tz_r/value	/jointset/pf_r/pf_tz_r/speed	/jointset/knee_r/knee_flex_r/value	/jointset/knee_r/knee_flex_r/speed	/jointset/knee_r/knee_add_r/value	/jointset/knee_r/knee_add_r/speed	/jointset/knee_r/knee_rot_r/value	/jointset/knee_r/knee_rot_r/speed	/jointset/knee_r/knee_tx_r/value	/jointset/knee_r/knee_tx_r/speed	/jointset/knee_r/knee_ty_r/value	/jointset/knee_r/knee_ty_r/speed	/jointset/knee_r/knee_tz_r/value	/jointset/knee_r/knee_tz_r/speed	/jointset/ankle_r/ankle_flex_r/value	/jointset/ankle_r/ankle_flex_r/speed	/jointset/subtalar_r/subt_angle_r/value	/jointset/subtalar_r/subt_angle_r/speed	/jointset/mtp_r/mtp_angle_r/value	/jointset/mtp_r/mtp_angle_r/speed	/jointset/hip_l/hip_flex_l/value	/jointset/hip_l/hip_flex_l/speed	/jointset/hip_l/hip_add_l/value	/jointset/hip_l/hip_add_l/speed	/jointset/hip_l/hip_rot_l/value	/jointset/hip_l/hip_rot_l/speed	/jointset/pf_l/pf_l_r3/value	/jointset/pf_l/pf_l_r3/speed	/jointset/pf_l/pf_l_tx/value	/jointset/pf_l/pf_l_tx/speed	/jointset/pf_l/pf_l_ty/value	/jointset/pf_l/pf_l_ty/speed	/jointset/knee_l/knee_flex_l/value	/jointset/knee_l/knee_flex_l/speed	/jointset/ankle_l/ankle_flex_l/value	/jointset/ankle_l/ankle_flex_l/speed	/jointset/subtalar_l/subt_angle_l/value	/jointset/subtalar_l/subt_angle_l/speed	/jointset/mtp_l/mtp_angle_l/value	/jointset/mtp_l/mtp_angle_l/speed	/jointset/pelvis_torso/lumbar_ext/value	/jointset/pelvis_torso/lumbar_ext/speed	/jointset/pelvis_torso/lumbar_latbend/value	/jointset/pelvis_torso/lumbar_latbend/speed	/jointset/pelvis_torso/lumbar_rot/value	/jointset/pelvis_torso/lumbar_rot/speed	/jointset/torso_neckhead/neck_ext/value	/jointset/torso_neckhead/neck_ext/speed	/jointset/torso_neckhead/neck_latbend/value	/jointset/torso_neckhead/neck_latbend/speed	/jointset/torso_neckhead/neck_rot/value	/jointset/torso_neckhead/neck_rot/speed	/jointset/acromial_r/arm_add_r/value	/jointset/acromial_r/arm_add_r/speed	/jointset/acromial_r/arm_flex_r/value	/jointset/acromial_r/arm_flex_r/speed	/jointset/acromial_r/arm_rot_r/value	/jointset/acromial_r/arm_rot_r/speed	/jointset/elbow_r/elbow_flex_r/value	/jointset/elbow_r/elbow_flex_r/speed	/jointset/radioulnar_r/pro_sup_r/value	/jointset/radioulnar_r/pro_sup_r/speed	/jointset/radius_hand_r/wrist_flex_r/value	/jointset/radius_hand_r/wrist_flex_r/speed	/jointset/acromial_l/arm_add_l/value	/jointset/acromial_l/arm_add_l/speed	/jointset/acromial_l/arm_flex_l/value	/jointset/acromial_l/arm_flex_l/speed	/jointset/acromial_l/arm_rot_l/value	/jointset/acromial_l/arm_rot_l/speed	/jointset/elbow_l/elbow_flex_l/value	/jointset/elbow_l/elbow_flex_l/speed	/jointset/radioulnar_l/pro_sup_l/value	/jointset/radioulnar_l/pro_sup_l/speed	/jointset/radius_hand_l/wrist_flex_l/value	/jointset/radius_hand_l/wrist_flex_l/speed	/forceset/addbrev_r/activation	/forceset/addbrev_r/fiber_length	/forceset/addlong_r/activation	/forceset/addlong_r/fiber_length	/forceset/addmagProx_r/activation	/forceset/addmagProx_r/fiber_length	/forceset/addmagMid_r/activation	/forceset/addmagMid_r/fiber_length	/forceset/addmagDist_r/activation	/forceset/addmagDist_r/fiber_length	/forceset/addmagIsch_r/activation	/forceset/addmagIsch_r/fiber_length	/forceset/bflh_r/activation	/forceset/bflh_r/fiber_length	/forceset/bfsh_r/activation	/forceset/bfsh_r/fiber_length	/forceset/edl_r/activation	/forceset/edl_r/fiber_length	/forceset/ehl_r/activation	/forceset/ehl_r/fiber_length	/forceset/fdl_r/activation	/forceset/fdl_r/fiber_length	/forceset/fhl_r/activation	/forceset/fhl_r/fiber_length	/forceset/gaslat_r/activation	/forceset/gaslat_r/fiber_length	/forceset/gasmed_r/activation	/forceset/gasmed_r/fiber_length	/forceset/gem_r/activation	/forceset/gem_r/fiber_length	/forceset/glmax1_r/activation	/forceset/glmax1_r/fiber_length	/forceset/glmax2_r/activation	/forceset/glmax2_r/fiber_length	/forceset/glmax3_r/activation	/forceset/glmax3_r/fiber_length	/forceset/glmed1_r/activation	/forceset/glmed1_r/fiber_length	/forceset/glmed2_r/activation	/forceset/glmed2_r/fiber_length	/forceset/glmed3_r/activation	/forceset/glmed3_r/fiber_length	/forceset/glmin1_r/activation	/forceset/glmin1_r/fiber_length	/forceset/glmin2_r/activation	/forceset/glmin2_r/fiber_length	/forceset/glmin3_r/activation	/forceset/glmin3_r/fiber_length	/forceset/grac_r/activation	/forceset/grac_r/fiber_length	/forceset/iliacus_r/activation	/forceset/iliacus_r/fiber_length	/forceset/pect_r/activation	/forceset/pect_r/fiber_length	/forceset/perbrev_r/activation	/forceset/perbrev_r/fiber_length	/forceset/perlong_r/activation	/forceset/perlong_r/fiber_length	/forceset/pertert_r/activation	/forceset/pertert_r/fiber_length	/forceset/piri_r/activation	/forceset/piri_r/fiber_length	/forceset/psoas_r/activation	/forceset/psoas_r/fiber_length	/forceset/quadfem_r/activation	/forceset/quadfem_r/fiber_length	/forceset/recfem_r/activation	/forceset/recfem_r/fiber_length	/forceset/sart_r/activation	/forceset/sart_r/fiber_length	/forceset/semimem_r/activation	/forceset/semimem_r/fiber_length	/forceset/semiten_r/activation	/forceset/semiten_r/fiber_length	/forceset/soleus_r/activation	/forceset/soleus_r/fiber_length	/forceset/tfl_r/activation	/forceset/tfl_r/fiber_length	/forceset/tibant_r/activation	/forceset/tibant_r/fiber_length	/forceset/tibpost_r/activation	/forceset/tibpost_r/fiber_length	/forceset/vasint_r/activation	/forceset/vasint_r/fiber_length	/forceset/vaslat_r/activation	/forceset/vaslat_r/fiber_length	/forceset/vasmed_r/activation	/forceset/vasmed_r/fiber_length
1.1	-0.09867244414647536	-0.3538087667861644	0.004881773687658734	0.1419773594171197	-0.0122252347222527	0.2968161537324825	-0.1645277898370261	1.180032594769828	0.918730713958555	-0.2367747440602006	-0.2340622126216108	0.0292262204751588	0.5091981338701974	-0.5152499020849713	-0.00171463870994391	0.3345461669668092	-0.191588056436555	-1.300234748246636	0.1259186769374042	-0.327119908196771	0.01345524548269148	0.00961335898658002	-0.04681667438787029	-0.413442830909921	0.04916234346206082	0.000288220950431933	0.001213920297253385	-0.2899484148214234	0.00433148169781025	-0.07262654010646134	0.1588551955929109	-6.499063031370439	0.01465424077297559	0.281428964008715	0.01154894893692664	-0.1528216602009721	0.003802780000217384	-0.0896733503175584	0.001209766342083233	0.1035557589314652	-0.0004984858237321633	-0.002470003413461233	0.001424630504647891	0.5343114071016157	-0.01313609825585146	2.395401479961197	0	0	-0.1378270338173297	-1.175415224567589	-0.10516610902715	-0.06537054696603961	0.1032253572923372	0.0529665282193123	0.001136855114871519	1.26490253456642e-17	0.04434999999999904	8.673617379883939e-17	-0.4187119999999906	-6.938893903907086e-16	0.07870521978987161	-0.246776993466066	0.3959006896627856	0.8040458054510978	0.1085341347422281	0.7073660813009821	0	0	-0.05024569102271021	0.3640966701944188	0.009487069788225456	-0.1853409185153819	0.08048676614102167	-0.2203789051475289	0.179083813609504	0.05634141847622044	0	0	0	0	-0.1311375140232506	0.2317722673929608	-0.1907846462434368	-0.5878378569431713	-0.4082623667339129	-1.114988484482209	0.7327511369382218	-1.022822711658684	0.7737767761561115	-0.07046387879084598	0	0	-0.1027514407992752	-0.02479379337702586	0.2796148129280722	1.114673041413417	-0.3128868624869554	1.613218991442195	0.7020808687734408	1.384631732475877	0.7896901153999973	-0.07201719428954487	0	0	0.01	0.1	0.01	0.1	0.01	0.1	0.01	0.1	0.01	0.1	0.01	0.1	0.01	0.1	0.01	0.1	0.01	0.1	0.01	0.1	0.01	0.1	0.01	0.1	0.01	0.1	0.01	0.1	0.01	0.1	0.01	0.1	0.01	0.1	0.01	0.1	0.01	0.1	0.01	0.1	0.01	0.1	0.01	0.1	0.01	0.1	0.01	0.1	0.01	0.1	0.01	0.1	0.01	0.1	0.01	0.1	0.01	0.1	0.01	0.1	0.01	0.1	0.01	0.1	0.01	0.1	0.01	0.1	0.01	0.1712326517334566	0.01	0.1	0.01	0.1	0.01	0.1	0.01	0.1	0.01	0.1	0.01	0.1	0.01	0.1	0.01	0.1	0.01	0.1
1.11	-0.1020885668250828	-0.3258350364926546	0.006347046779285772	0.1491627470413978	-0.00928843141046664	0.2895783170474071	-0.1526694449058021	1.191678091759987	0.9163786384384667	-0.2329245303656643	-0.2337523409902008	0.03270813361502431	0.5043730030140916	-0.4469450908608163	0.001585543846214612	0.3240883904398035	-0.2036876438664941	-1.111600809449922	0.1203075330212608	-0.5611143916143377	0.01354031363460484	0.008506815191336267	-0.05017988423853353	-0.336320985066323	0.04941325931115154	0.02509158490907185	0.003776933346505061	0.2563013049251673	0.004303125713382695	-0.002835598442755495	0.09751053638676097	-5.742932426127733	0.01293950406133242	-0.1714736711643168	0.008788501642887057	-0.2760447294039585	0.003403974509829359	-0.03988054903880244	0.001227235759160937	0.001746941707770351	-0.0002382003772632665	0.02602854464688966	0.006767869173099893	0.5362351326722681	0.01057963217249801	2.337913218935774	0	0	-0.1494019243003329	-1.14218671212827	-0.1057292223142316	-0.04532338336326452	0.1038447065463253	0.06999986596497644	0.001136855114871519	1.727495461506716e-17	0.04434999999999903	-5.204170427930517e-17	-0.4187119999999906	-8.784639682346537e-15	0.07693090477064647	-0.1058952082886052	0.4032168023877939	0.6594693635521642	0.1150926275107575	0.6061950923785525	0	0	-0.04668437136784835	0.3441490917511459	0.007681491827961922	-0.173137548536356	0.07813354625462957	-0.2489930548792011	0.179604815079541	0.04789127298360543	0	0	0	0	-0.1290942306835274	0.1776658757078242	-0.1963665977225982	-0.5284235862776316	-0.4184056059897946	-0.9184846805717162	0.7223224234148546	-1.060463874819106	0.7730681763762102	-0.07104303880291926	0	0	-0.1026934721872268	0.03644076650878567	0.2903859492581819	1.039136849854041	-0.2982285645014042	1.324134986645661	0.7155761714866327	1.313264000191281	0.7890060044963207	-0.06479731877276047	0	0	0.01	0.1	0.01	0.1	0.01	0.1	0.01	0.1	0.01	0.1	0.01	0.1	0.2439511871464175	0.1	0.01	0.1	0.05955162977315333	0.1	0.0596920301083004	0.1	0.01	0.1	0.01	0.1	0.01	0.1	0.01	0.1	0.2103667377762542	0.1	0.01	0.1	0.01	0.1	0.01	0.1	0.01	0.1	0.01611874609082645	0.1	0.03908986930404944	0.1	0.01937770277177302	0.1	0.04453769530366106	0.1	0.08350922917989267	0.1	0.04639425768937787	0.1	0.04607675164848853	0.1	0.01	0.1	0.01	0.1	0.01	0.1	0.03872846345038977	0.1	0.1314396385089145	0.1	0.02544571665907133	0.1	0.01	0.1	0.01	0.1	0.01	0.1712326517334566	0.2501332210340287	0.1	0.151042515771332	0.1	0.01	0.1	0.01	0.1	0.07264364619362904	0.1	0.01	0.1	0.01	0.1	0.01	0.1	0.01	0.1
1.12	-0.1051194807899671	-0.2770202046382138	0.007825169714369135	0.1443988982645541	-0.0064562685243701	0.2755909635890775	-0.1406925002231576	1.203844883714122	0.9140863087274623	-0.2248531899285712	-0.2334082537417855	0.03612730446911955	0.5003059383737172	-0.3646283834158322	0.004741893985532224	0.3060600799168152	-0.2136844005322444	-0.8822652426605048	0.1170683669188001	-0.3239166102460692	0.01388571165948572	0.03453980248808855	-0.05371789985409849	-0.3538015615564956	0.04942782993751568	0.001457062636413957	0.00640743181174747	0.2630498465242407	0.004522186896693576	0.02190611833108806	0.04448775418099164	-4.839439687694392	0.007823477622918506	-0.5116026438413905	0.005053060019744727	-0.3735441623142327	0.003240576220761013	-0.01633982890683463	0.00119472166236066	-0.003251409680027695	-0.0001360303176007765	0.01021700596624899	0.01216320015786503	0.5423189581744521	0.03342714732220742	2.221927077768163	0	0	-0.160724921698112	-1.125155630313776	-0.1060337448487121	-0.01364145227443235	0.1046021458008301	0.08008784817775397	0.001136855114871519	-7.011174048595122e-18	0.04434999999999903	-6.857940141698106e-16	-0.4187119999999906	4.399258735077197e-15	0.07662549434097272	0.04640781734933874	0.4091041426277469	0.5189681898298918	0.120698133867817	0.5169029702265108	0	0	-0.04343900514806108	0.3013945067864092	0.006077055475406786	-0.1451227739911967	0.07554035663343066	-0.26765420438377	0.1800432432460171	0.03991644423167598	0	0	0	0	-0.1275637369724786	0.1296378000595294	-0.2013565543383758	-0.4700343559791323	-0.4267433738941145	-0.755127497152438	0.7115905572793062	-1.083519271368891	0.7723597371938499	-0.07047880239260189	0	0	-0.1020252202796593	0.09692606170122739	0.3003860123232659	0.9601341073520451	-0.2862655515062729	1.076318495446747	0.7283299367652778	1.236992078691724	0.7883936688375744	-0.05771943854462952	0	0	0.05241201503538049	0.1	0.05500594049476152	0.1	0.03428246001587332	0.1	0.07157762126438372	0.1	0.06884164454930924	0.1	0.09131197335848032	0.1	0.2962398820598636	0.1	0.01	0.1	0.05064940170324615	0.1	0.05053641838033841	0.1	0.01	0.1	0.01	0.1	0.01	0.1	0.01	0.1	0.01	0.1	0.02844438591056169	0.1	0.03399057853463607	0.1	0.07107716629057091	0.1	0.02671248398725489	0.1	0.01	0.1	0.01	0.1	0.01	0.1	0.01	0.1	0.01	0.1	0.01	0.1	0.01	0.1	0.016457165900443	0.1	0.01	0.1	0.01	0.1	0.03334692593391529	0.1	0.01	0.1	0.01	0.1	0.01073774070873404	0.1	0.01	0.1	0.01	0.1712326517334566	0.2765020236659039	0.1	0.1554732985908768	0.1	0.01	0.1	0.01	0.1	0.06164801696082233	0.1	0.01	0.1	0.01	0.1	0.01	0.1	0.01	0.1
1.13	-0.1075671932924207	-0.2097240158930798	0.009192659282252165	0.126937036087488	-0.003803545952653252	0.25355708044583	-0.1285888691050745	1.217114940329821	0.911894890816295	-0.2127909272613905	-0.2330289377694235	0.03980100648473919	0.4971064199915939	-0.274516282225189	0.007689359183746092	0.2828158911523976	-0.2212556221831729	-0.6297317149117356	0.1132735666387718	-0.379480028002829	0.01444939902047306	0.05636873609873387	-0.05742921939500213	-0.3711319540903643	0.04930429387448038	-0.01235360630352996	0.008499509019113493	0.209207720736602	0.00479211590487644	0.02699290081828633	0.001099995846908865	-3.822470985050581	0.001538196518249167	-0.6285281104669334	0.001031239135855563	-0.402182088388916	0.002991058625583742	-0.02495175951772704	0.001102922884794432	-0.009179877756622826	-0.0001440059873048132	-0.0007975669704036676	0.01757442967632542	0.5364571855976157	0.05482570289426632	2.048171234325323	0	0	-0.1719589722736841	-1.124245635938807	-0.1059637171408434	0.02952737524153698	0.1054146774346945	0.0806889884744537	0.001136855114871519	-2.620155250173357e-17	0.04434999999999902	-1.156482317317885e-15	-0.4187119999999906	6.938893903907528e-15	0.07788404608326183	0.2061979443392987	0.4136161776522428	0.3843147753053494	0.1254662596643646	0.438166157534457	0	0	-0.04071905433180281	0.2399367251333481	0.004831094893952837	-0.1015014769621048	0.07282402741874855	-0.2733297877353837	0.1804062249619723	0.03285955741844526	0	0	0	0	-0.1264754066432318	0.08938183586289716	-0.2057821875102487	-0.4160961557970561	-0.4336323033064735	-0.6288223758524358	0.7006986635104817	-1.092598582561074	0.7716613877981183	-0.06907816021793614	0	0	-0.1007629414040423	0.1550332421488615	0.309570408238374	0.875660534028862	-0.2765360673726299	0.8780623806384233	0.7403108190108676	1.159116741706802	0.787850389885381	-0.05100162777658934	0	0	0.08020612825176557	0.1	0.07753670698099427	0.1	0.05257159588091379	0.1	0.1289855853774347	0.1	0.1315127104910362	0.1	0.1782735489863458	0.1	0.3871426827833635	0.1	0.01	0.1	0.04266515859599604	0.1	0.04237929816817216	0.1	0.01	0.1	0.01	0.1	0.01	0.1	0.01	0.1	0.01	0.1	0.06910932813161189	0.1	0.0788016551843833	0.1	0.1440134150662554	0.1	0.06585195842699071	0.1	0.02081500586034693	0.1	0.01	0.1	0.02312548405536709	0.1	0.01	0.1	0.01	0.1	0.01	0.1	0.01	0.1	0.01565969843631339	0.1	0.01	0.1	0.01	0.1	0.02841076409463297	0.1	0.01	0.1	0.01	0.1	0.03261470835845397	0.1	0.01	0.1	0.01	0.1712326517334566	0.2861137462194115	0.1	0.1699377435813488	0.1	0.01	0.1	0.01	0.1	0.05181537700105804	0.1	0.01	0.1	0.01	0.1	0.01	0.1	0.01	0.1
